<svg width="22" height="16" viewBox="0 0 22 16" fill="none" xmlns="http://www.w3.org/2000/svg">
<path fill-rule="evenodd" clip-rule="evenodd" d="M0.154133 0.144089C-0.0513778 0.3496 -0.0513778 14.8245 0.154133 15.03C0.346252 15.2221 2.28497 15.2221 2.47709 15.03C2.5757 14.9314 2.61932 14.3137 2.61932 13.0152V11.1426H10.8564H19.0934V12.9162C19.0934 14.6024 19.1058 14.6965 19.3449 14.8244C19.7138 15.0218 21.4422 14.9236 21.5855 14.6971C21.6514 14.5929 21.698 12.1718 21.699 8.79594C21.7009 2.51564 21.7063 2.56506 20.9936 2.19647C20.7 2.04465 19.9175 2.01668 15.9671 2.01668H11.2884L11.0428 2.32898C10.8092 2.62587 10.7971 2.78634 10.7971 5.58824V8.5352H6.70821H2.61932V4.41076C2.61932 1.36092 2.58222 0.249215 2.47709 0.144089C2.28497 -0.0480296 0.346252 -0.0480296 0.154133 0.144089ZM5.57126 2.29247C4.7997 2.69982 4.38512 3.35713 4.31496 4.28406C4.26672 4.92323 4.3018 5.12068 4.54406 5.57224C5.47798 7.31339 8.01559 7.30747 8.90602 5.56205C9.36694 4.65858 9.13925 3.32761 8.40705 2.64459C7.69179 1.97745 6.45813 1.82421 5.57126 2.29247Z" fill="white"/>
</svg>
