<svg width="24" height="20" viewBox="0 0 24 20" fill="none" xmlns="http://www.w3.org/2000/svg">
<path fill-rule="evenodd" clip-rule="evenodd" d="M5.91687 0.259424C9.89601 -0.0864746 13.8977 -0.0864746 17.8768 0.259424L19.7848 0.426219C20.6719 0.503451 21.5072 0.87701 22.1561 1.48673C22.805 2.09645 23.2298 2.90684 23.3621 3.78739C23.9351 7.59888 23.9351 11.4746 23.3621 15.2861C23.3115 15.6197 23.2206 15.9394 23.0942 16.2389C23.0108 16.4373 22.753 16.4676 22.6065 16.3084L17.0201 10.1622C16.8966 10.0264 16.7362 9.92931 16.5585 9.88287C16.3809 9.83644 16.1935 9.84262 16.0193 9.90067L12.8212 10.9671L8.1825 5.74849C8.09669 5.65195 7.99207 5.57397 7.87503 5.51933C7.758 5.4647 7.63103 5.43456 7.50193 5.43078C7.37283 5.42699 7.24432 5.44963 7.12428 5.49731C7.00425 5.54499 6.89523 5.61671 6.80391 5.70805L0.594601 11.9174C0.552417 11.9607 0.498499 11.9908 0.439457 12.004C0.380414 12.0172 0.318813 12.0128 0.262206 11.9915C0.205598 11.9702 0.156443 11.9328 0.120768 11.8839C0.085093 11.8351 0.0644477 11.7769 0.0613632 11.7165C-0.0880582 9.06735 0.0355834 6.40991 0.430333 3.78612C0.562613 2.90558 0.98742 2.09519 1.63634 1.48547C2.28525 0.875746 3.12051 0.502187 4.00758 0.424955L5.91687 0.259424ZM14.4234 5.74596C14.4234 5.24327 14.6231 4.76117 14.9785 4.40571C15.334 4.05026 15.8161 3.85057 16.3188 3.85057C16.8215 3.85057 17.3036 4.05026 17.659 4.40571C18.0145 4.76117 18.2142 5.24327 18.2142 5.74596C18.2142 6.24865 18.0145 6.73075 17.659 7.08621C17.3036 7.44166 16.8215 7.64136 16.3188 7.64136C15.8161 7.64136 15.334 7.44166 14.9785 7.08621C14.6231 6.73075 14.4234 6.24865 14.4234 5.74596Z" fill="white"/>
<path d="M0.474293 14.7176C0.440086 14.752 0.414303 14.7938 0.398959 14.8399C0.383614 14.8859 0.379125 14.9349 0.385841 14.9829L0.430067 15.2862C0.562346 16.1667 0.987153 16.9771 1.63607 17.5868C2.28499 18.1966 3.12024 18.5701 4.00731 18.6474L5.91534 18.8129C9.89567 19.1591 13.8962 19.1591 17.8765 18.8129L19.7846 18.6474C20.3079 18.6021 20.8169 18.453 21.2819 18.2089C21.455 18.1192 21.4841 17.8905 21.3527 17.7464L16.172 12.0476C16.1308 12.0018 16.0772 11.9691 16.0177 11.9534C15.9582 11.9377 15.8955 11.9397 15.8371 11.9591L12.8272 12.9624C12.6512 13.0212 12.4619 13.027 12.2827 12.9792C12.1034 12.9313 11.9421 12.8319 11.8189 12.6933L7.65531 8.00914C7.62665 7.97695 7.5917 7.95097 7.55262 7.93279C7.51354 7.91461 7.47115 7.90462 7.42807 7.90344C7.38498 7.90226 7.34211 7.9099 7.30209 7.92591C7.26207 7.94191 7.22575 7.96594 7.19536 7.9965L0.474293 14.7176Z" fill="white"/>
</svg>
