<svg width="20" height="21" viewBox="0 0 20 21" fill="none" xmlns="http://www.w3.org/2000/svg">
<path d="M13.5316 12.1711C13.4387 12.0778 13.3281 12.0037 13.2063 11.9532C13.0845 11.9026 12.9538 11.8766 12.8219 11.8766C12.6899 11.8766 12.5593 11.9026 12.4374 11.9532C12.3156 12.0037 12.2051 12.0778 12.1121 12.1711C11.926 12.3577 11.8215 12.6101 11.8215 12.8731C11.8215 13.1362 11.926 13.3886 12.1121 13.5752L18.2898 19.7289C18.3828 19.8222 18.4933 19.8963 18.6151 19.9469C18.737 19.9974 18.8676 20.0234 18.9996 20.0234C19.1315 20.0234 19.2622 19.9974 19.384 19.9469C19.5058 19.8963 19.6164 19.8222 19.7093 19.7289C19.8955 19.5423 20 19.29 20 19.0269C20 18.7638 19.8955 18.5115 19.7093 18.3249L13.5316 12.1711ZM14.7612 9.69173C15.5562 9.69103 16.3185 9.37584 16.8804 8.81546L19.7093 5.99749C19.8955 5.81092 20 5.55855 20 5.29549C20 5.03242 19.8955 4.78005 19.7093 4.59348C19.6164 4.50015 19.5058 4.42607 19.384 4.37552C19.2622 4.32497 19.1315 4.29894 18.9996 4.29894C18.8676 4.29894 18.737 4.32497 18.6151 4.37552C18.4933 4.42607 18.3828 4.50015 18.2898 4.59348L15.4609 7.41146C15.2736 7.59692 15.0202 7.70101 14.7562 7.70101C14.4921 7.70101 14.2387 7.59692 14.0514 7.41146L17.5901 3.8865C17.7763 3.69993 17.8808 3.44756 17.8808 3.18449C17.8808 2.92143 17.7763 2.66905 17.5901 2.48249C17.4972 2.38916 17.3866 2.31508 17.2648 2.26453C17.143 2.21397 17.0123 2.18795 16.8804 2.18795C16.7484 2.18795 16.6177 2.21397 16.4959 2.26453C16.3741 2.31508 16.2636 2.38916 16.1706 2.48249L12.6419 5.99749C12.4558 5.81092 12.3513 5.55855 12.3513 5.29549C12.3513 5.03242 12.4558 4.78005 12.6419 4.59348L15.4609 1.7755C15.5655 1.68624 15.6505 1.57639 15.7105 1.45285C15.7705 1.32931 15.8042 1.19476 15.8096 1.05762C15.8149 0.920487 15.7917 0.783739 15.7414 0.655959C15.6912 0.528179 15.6149 0.412127 15.5175 0.315086C15.4201 0.218046 15.3036 0.142112 15.1753 0.0920508C15.047 0.0419898 14.9098 0.0188826 14.7721 0.0241795C14.6344 0.0294764 14.4993 0.0630631 14.3753 0.122831C14.2513 0.1826 14.141 0.267259 14.0514 0.371496L11.2225 3.18947C10.6609 3.74958 10.3454 4.50884 10.3454 5.30046C10.3454 6.09209 10.6609 6.85135 11.2225 7.41146L10.0029 8.64619L8.4435 7.11273C8.88608 6.31708 9.05345 5.39844 8.91976 4.49861C8.78606 3.59879 8.35875 2.76782 7.70377 2.13398C6.26431 0.700094 2.53569 -0.903065 0.776346 0.879329C-0.983 2.66172 0.606409 6.33604 2.00589 7.77988C2.78743 8.56118 3.8382 9.01688 4.9448 9.05445H5.08475C5.76062 9.04487 6.42224 8.85951 7.00403 8.51674L8.57345 10.0502L0.296525 18.295C0.203977 18.3879 0.130694 18.4979 0.0808585 18.619C0.0310233 18.7401 0.00561226 18.8697 0.00607638 19.0005C0.00654049 19.1314 0.0328705 19.2608 0.0835633 19.3815C0.134256 19.5022 0.208319 19.6118 0.301523 19.704C0.394727 19.7962 0.505247 19.8692 0.626772 19.9188C0.748298 19.9685 0.878449 19.9938 1.0098 19.9933C1.14114 19.9929 1.27111 19.9666 1.39228 19.9161C1.51345 19.8656 1.62345 19.7919 1.716 19.699L10.7127 10.7373L12.6319 8.82542C12.9122 9.10229 13.2445 9.32133 13.6099 9.46999C13.9752 9.61864 14.3665 9.694 14.7612 9.69173ZM6.43424 6.50532C6.24697 6.69077 6.02347 6.83594 5.77759 6.93186C5.5317 7.02778 5.26867 7.07239 5.00478 7.06294C4.4204 7.03788 3.86856 6.78801 3.46535 6.36592C2.38575 5.29051 1.62603 2.85092 2.19582 2.28334C2.38507 2.14113 2.61891 2.07054 2.85557 2.08419C4.1314 2.18548 5.33899 2.69951 6.2943 3.54794C6.70242 3.92406 6.94581 4.44487 6.97199 4.9981C6.99817 5.55132 6.80504 6.09263 6.43424 6.50532Z" fill="white"/>
</svg>
