<svg width="178" height="178" viewBox="0 0 178 178" fill="none" xmlns="http://www.w3.org/2000/svg">
<path fill-rule="evenodd" clip-rule="evenodd" d="M149 88.875C149 56.2553 121.837 29.2204 89.5 28.5V0C137.731 0.724297 177.777 40.3075 177.777 88.875C177.777 89.2574 177.775 89.6393 177.77 90.0205L149 89C149 88.9584 149 88.9167 149 88.875Z" fill="#D60303" fill-opacity="0.7"/>
<path fill-rule="evenodd" clip-rule="evenodd" d="M25.5 27C41.2679 11.3512 65.5704 0.445401 89.5 0V28.5C73.7532 28.9349 56.484 36.7645 46 47L25.5 27Z" fill="#F126C4" fill-opacity="0.7"/>
<path fill-rule="evenodd" clip-rule="evenodd" d="M94.4997 177C138.704 173.637 175.624 134.659 177.696 90.0168L149 89.0002C147.451 118.739 122.355 145.696 92.9551 148.26L94.4997 177Z" fill="#0094FF" fill-opacity="0.7"/>
<path fill-rule="evenodd" clip-rule="evenodd" d="M94.5004 177.001C93.2562 177.053 90.1857 177.001 88.9286 177.001C53.0626 177.001 21.436 154.054 7.60742 123.372L34.0002 112C43.4171 132.485 64.8872 148.298 88.9287 148.298C89.6675 148.298 92.2681 148.324 93.0004 148.298L94.5004 177.001Z" fill="#00AE5B" fill-opacity="0.7"/>
<path fill-rule="evenodd" clip-rule="evenodd" d="M0.695312 88.4043C0.695312 100.276 3.26581 113.153 7.5 123.5L33.9753 112.079C31.2485 105.236 29.5127 96.2198 29.5127 88.4043C29.5127 72.7921 36.2021 57.6475 46 47L25.5 27C10.6809 42.8394 0.695312 64.9991 0.695312 88.4043Z" fill="#643EFF" fill-opacity="0.7"/>
<path d="M82.7553 74.03V74.77H80.8553V81H79.9453V74.77H78.0353V74.03H82.7553ZM86.2655 81.09C85.7521 81.09 85.2855 80.9733 84.8655 80.74C84.4521 80.5067 84.1255 80.1767 83.8855 79.75C83.6521 79.3167 83.5355 78.8167 83.5355 78.25C83.5355 77.69 83.6555 77.1967 83.8955 76.77C84.1421 76.3367 84.4755 76.0067 84.8955 75.78C85.3155 75.5467 85.7855 75.43 86.3055 75.43C86.8255 75.43 87.2955 75.5467 87.7155 75.78C88.1355 76.0067 88.4655 76.3333 88.7055 76.76C88.9521 77.1867 89.0755 77.6833 89.0755 78.25C89.0755 78.8167 88.9488 79.3167 88.6955 79.75C88.4488 80.1767 88.1121 80.5067 87.6855 80.74C87.2588 80.9733 86.7855 81.09 86.2655 81.09ZM86.2655 80.29C86.5921 80.29 86.8988 80.2133 87.1855 80.06C87.4721 79.9067 87.7021 79.6767 87.8755 79.37C88.0555 79.0633 88.1455 78.69 88.1455 78.25C88.1455 77.81 88.0588 77.4367 87.8855 77.13C87.7121 76.8233 87.4855 76.5967 87.2055 76.45C86.9255 76.2967 86.6221 76.22 86.2955 76.22C85.9621 76.22 85.6555 76.2967 85.3755 76.45C85.1021 76.5967 84.8821 76.8233 84.7155 77.13C84.5488 77.4367 84.4655 77.81 84.4655 78.25C84.4655 78.6967 84.5455 79.0733 84.7055 79.38C84.8721 79.6867 85.0921 79.9167 85.3655 80.07C85.6388 80.2167 85.9388 80.29 86.2655 80.29ZM91.382 76.27V79.5C91.382 79.7667 91.4386 79.9567 91.552 80.07C91.6653 80.1767 91.862 80.23 92.142 80.23H92.812V81H91.992C91.4853 81 91.1053 80.8833 90.852 80.65C90.5986 80.4167 90.472 80.0333 90.472 79.5V76.27H89.762V75.52H90.472V74.14H91.382V75.52H92.812V76.27H91.382ZM93.5745 78.24C93.5745 77.68 93.6879 77.19 93.9145 76.77C94.1412 76.3433 94.4512 76.0133 94.8445 75.78C95.2445 75.5467 95.6879 75.43 96.1745 75.43C96.6545 75.43 97.0712 75.5333 97.4245 75.74C97.7779 75.9467 98.0412 76.2067 98.2145 76.52V75.52H99.1345V81H98.2145V79.98C98.0345 80.3 97.7645 80.5667 97.4045 80.78C97.0512 80.9867 96.6379 81.09 96.1645 81.09C95.6779 81.09 95.2379 80.97 94.8445 80.73C94.4512 80.49 94.1412 80.1533 93.9145 79.72C93.6879 79.2867 93.5745 78.7933 93.5745 78.24ZM98.2145 78.25C98.2145 77.8367 98.1312 77.4767 97.9645 77.17C97.7979 76.8633 97.5712 76.63 97.2845 76.47C97.0045 76.3033 96.6945 76.22 96.3545 76.22C96.0145 76.22 95.7045 76.3 95.4245 76.46C95.1445 76.62 94.9212 76.8533 94.7545 77.16C94.5879 77.4667 94.5045 77.8267 94.5045 78.24C94.5045 78.66 94.5879 79.0267 94.7545 79.34C94.9212 79.6467 95.1445 79.8833 95.4245 80.05C95.7045 80.21 96.0145 80.29 96.3545 80.29C96.6945 80.29 97.0045 80.21 97.2845 80.05C97.5712 79.8833 97.7979 79.6467 97.9645 79.34C98.1312 79.0267 98.2145 78.6633 98.2145 78.25ZM101.582 73.6V81H100.672V73.6H101.582Z" fill="black"/>
<path d="M64.9093 92.187V93.175H66.2223V94.371H64.8313C64.6926 95.1943 64.3503 95.7923 63.8043 96.165C63.267 96.5377 62.4523 96.724 61.3603 96.724V97.413C61.3603 97.8203 61.4426 98.141 61.6073 98.375C61.7806 98.609 62.071 98.726 62.4783 98.726C62.8683 98.726 63.15 98.6177 63.3233 98.401C63.4966 98.1757 63.5833 97.8507 63.5833 97.426H65.2733C65.256 98.3013 65.009 98.973 64.5323 99.441C64.0556 99.9003 63.3753 100.13 62.4913 100.13C61.5726 100.13 60.8706 99.883 60.3853 99.389C59.9 98.895 59.6573 98.1757 59.6573 97.231V95.502C60.5846 95.502 61.2693 95.4803 61.7113 95.437C62.1533 95.385 62.4826 95.281 62.6993 95.125C62.916 94.969 63.059 94.7177 63.1283 94.371H59.2413V93.175H63.1933V92.187H59.2413V90.913H66.2223V92.187H64.9093ZM71.0012 97.946C71.8332 97.2527 72.4962 96.6763 72.9902 96.217C73.4842 95.749 73.8959 95.2637 74.2252 94.761C74.5546 94.2583 74.7192 93.7643 74.7192 93.279C74.7192 92.837 74.6152 92.4903 74.4072 92.239C74.1992 91.9877 73.8786 91.862 73.4452 91.862C73.0119 91.862 72.6782 92.0093 72.4442 92.304C72.2102 92.59 72.0889 92.9843 72.0802 93.487H70.3122C70.3469 92.447 70.6546 91.6583 71.2352 91.121C71.8246 90.5837 72.5699 90.315 73.4712 90.315C74.4592 90.315 75.2176 90.5793 75.7462 91.108C76.2749 91.628 76.5392 92.317 76.5392 93.175C76.5392 93.851 76.3572 94.4967 75.9932 95.112C75.6292 95.7273 75.2132 96.2647 74.7452 96.724C74.2772 97.1747 73.6662 97.7207 72.9122 98.362H76.7472V99.87H70.3252V98.518L71.0012 97.946ZM84.2641 92.096H80.0521V94.319C80.2341 94.0937 80.4941 93.9117 80.8321 93.773C81.1701 93.6257 81.5297 93.552 81.9111 93.552C82.6044 93.552 83.1721 93.7037 83.6141 94.007C84.0561 94.3103 84.3767 94.7003 84.5761 95.177C84.7754 95.645 84.8751 96.1477 84.8751 96.685C84.8751 97.6817 84.5891 98.4833 84.0171 99.09C83.4537 99.6967 82.6477 100 81.5991 100C80.6111 100 79.8224 99.753 79.2331 99.259C78.6437 98.765 78.3101 98.1193 78.2321 97.322H80.0001C80.0781 97.6687 80.2514 97.946 80.5201 98.154C80.7974 98.362 81.1484 98.466 81.5731 98.466C82.0844 98.466 82.4701 98.3057 82.7301 97.985C82.9901 97.6643 83.1201 97.2397 83.1201 96.711C83.1201 96.1737 82.9857 95.7663 82.7171 95.489C82.4571 95.203 82.0714 95.06 81.5601 95.06C81.1961 95.06 80.8927 95.151 80.6501 95.333C80.4074 95.515 80.2341 95.7577 80.1301 96.061H78.3881V90.497H84.2641V92.096ZM92.6303 92.096H88.4183V94.319C88.6003 94.0937 88.8603 93.9117 89.1983 93.773C89.5363 93.6257 89.896 93.552 90.2773 93.552C90.9706 93.552 91.5383 93.7037 91.9803 94.007C92.4223 94.3103 92.743 94.7003 92.9423 95.177C93.1416 95.645 93.2413 96.1477 93.2413 96.685C93.2413 97.6817 92.9553 98.4833 92.3833 99.09C91.82 99.6967 91.014 100 89.9653 100C88.9773 100 88.1886 99.753 87.5993 99.259C87.01 98.765 86.6763 98.1193 86.5983 97.322H88.3663C88.4443 97.6687 88.6176 97.946 88.8863 98.154C89.1636 98.362 89.5146 98.466 89.9393 98.466C90.4506 98.466 90.8363 98.3057 91.0963 97.985C91.3563 97.6643 91.4863 97.2397 91.4863 96.711C91.4863 96.1737 91.352 95.7663 91.0833 95.489C90.8233 95.203 90.4376 95.06 89.9263 95.06C89.5623 95.06 89.259 95.151 89.0163 95.333C88.7736 95.515 88.6003 95.7577 88.4963 96.061H86.7543V90.497H92.6303V92.096ZM94.6265 95.138C94.6265 93.6387 94.8952 92.4643 95.4325 91.615C95.9785 90.7657 96.8798 90.341 98.1365 90.341C99.3932 90.341 100.29 90.7657 100.828 91.615C101.374 92.4643 101.647 93.6387 101.647 95.138C101.647 96.646 101.374 97.829 100.828 98.687C100.29 99.545 99.3932 99.974 98.1365 99.974C96.8798 99.974 95.9785 99.545 95.4325 98.687C94.8952 97.829 94.6265 96.646 94.6265 95.138ZM99.8525 95.138C99.8525 94.4967 99.8092 93.9593 99.7225 93.526C99.6445 93.084 99.4798 92.7243 99.2285 92.447C98.9858 92.1697 98.6218 92.031 98.1365 92.031C97.6512 92.031 97.2828 92.1697 97.0315 92.447C96.7888 92.7243 96.6242 93.084 96.5375 93.526C96.4595 93.9593 96.4205 94.4967 96.4205 95.138C96.4205 95.7967 96.4595 96.3513 96.5375 96.802C96.6155 97.244 96.7802 97.6037 97.0315 97.881C97.2828 98.1497 97.6512 98.284 98.1365 98.284C98.6218 98.284 98.9902 98.1497 99.2415 97.881C99.4928 97.6037 99.6575 97.244 99.7355 96.802C99.8135 96.3513 99.8525 95.7967 99.8525 95.138ZM104.045 100.091C103.715 100.091 103.442 99.9913 103.226 99.792C103.018 99.584 102.914 99.3283 102.914 99.025C102.914 98.7217 103.018 98.4703 103.226 98.271C103.442 98.063 103.715 97.959 104.045 97.959C104.365 97.959 104.63 98.063 104.838 98.271C105.046 98.4703 105.15 98.7217 105.15 99.025C105.15 99.3283 105.046 99.584 104.838 99.792C104.63 99.9913 104.365 100.091 104.045 100.091ZM106.408 95.138C106.408 93.6387 106.676 92.4643 107.214 91.615C107.76 90.7657 108.661 90.341 109.918 90.341C111.174 90.341 112.071 90.7657 112.609 91.615C113.155 92.4643 113.428 93.6387 113.428 95.138C113.428 96.646 113.155 97.829 112.609 98.687C112.071 99.545 111.174 99.974 109.918 99.974C108.661 99.974 107.76 99.545 107.214 98.687C106.676 97.829 106.408 96.646 106.408 95.138ZM111.634 95.138C111.634 94.4967 111.59 93.9593 111.504 93.526C111.426 93.084 111.261 92.7243 111.01 92.447C110.767 92.1697 110.403 92.031 109.918 92.031C109.432 92.031 109.064 92.1697 108.813 92.447C108.57 92.7243 108.405 93.084 108.319 93.526C108.241 93.9593 108.202 94.4967 108.202 95.138C108.202 95.7967 108.241 96.3513 108.319 96.802C108.397 97.244 108.561 97.6037 108.813 97.881C109.064 98.1497 109.432 98.284 109.918 98.284C110.403 98.284 110.771 98.1497 111.023 97.881C111.274 97.6037 111.439 97.244 111.517 96.802C111.595 96.3513 111.634 95.7967 111.634 95.138ZM114.812 95.138C114.812 93.6387 115.081 92.4643 115.618 91.615C116.164 90.7657 117.065 90.341 118.322 90.341C119.579 90.341 120.476 90.7657 121.013 91.615C121.559 92.4643 121.832 93.6387 121.832 95.138C121.832 96.646 121.559 97.829 121.013 98.687C120.476 99.545 119.579 99.974 118.322 99.974C117.065 99.974 116.164 99.545 115.618 98.687C115.081 97.829 114.812 96.646 114.812 95.138ZM120.038 95.138C120.038 94.4967 119.995 93.9593 119.908 93.526C119.83 93.084 119.665 92.7243 119.414 92.447C119.171 92.1697 118.807 92.031 118.322 92.031C117.837 92.031 117.468 92.1697 117.217 92.447C116.974 92.7243 116.81 93.084 116.723 93.526C116.645 93.9593 116.606 94.4967 116.606 95.138C116.606 95.7967 116.645 96.3513 116.723 96.802C116.801 97.244 116.966 97.6037 117.217 97.881C117.468 98.1497 117.837 98.284 118.322 98.284C118.807 98.284 119.176 98.1497 119.427 97.881C119.678 97.6037 119.843 97.244 119.921 96.802C119.999 96.3513 120.038 95.7967 120.038 95.138Z" fill="black"/>
</svg>
